HIERARCHY
ROOT root
{
	OFFSET 0.000000 0.000000 0.000000
	CHANNELS 6 Xposition Yposition Zposition Zrotation Yrotation Xrotation
	JOINT lhip
	{
		OFFSET 0.058581 -0.082280 -0.017664
		CHANNELS 3 Zrotation Yrotation Xrotation
		JOINT lknee
		{
			OFFSET 0.043451 -0.386469 0.008037
			CHANNELS 3 Zrotation Yrotation Xrotation
			JOINT lankle
			{
				OFFSET -0.014790 -0.426874 -0.037428
				CHANNELS 3 Zrotation Yrotation Xrotation
				JOINT ltoe
				{
					OFFSET 0.041054 -0.060286 0.122042
					CHANNELS 3 Zrotation Yrotation Xrotation
					End Site
					{
						OFFSET 0.000000 0.000000 0.000000
					}
				}
			}
		}
	}
	JOINT rhip
	{
		OFFSET -0.060310 -0.090513 -0.013543
		CHANNELS 3 Zrotation Yrotation Xrotation
		JOINT rknee
		{
			OFFSET -0.043257 -0.383688 -0.004843
			CHANNELS 3 Zrotation Yrotation Xrotation
			JOINT rankle
			{
				OFFSET 0.019056 -0.420046 -0.034562
				CHANNELS 3 Zrotation Yrotation Xrotation
				JOINT rtoe
				{
					OFFSET -0.034840 -0.062106 0.130323
					CHANNELS 3 Zrotation Yrotation Xrotation
					End Site
					{
						OFFSET 0.000000 0.000000 0.000000
					}
				}
			}
		}
	}
	JOINT lowerback
	{
		OFFSET 0.004439 0.124404 -0.038385
		CHANNELS 3 Zrotation Yrotation Xrotation
		JOINT upperback
		{
			OFFSET 0.004488 0.137956 0.026820
			CHANNELS 3 Zrotation Yrotation Xrotation
			JOINT chest
			{
				OFFSET -0.002265 0.056032 0.002855
				CHANNELS 3 Zrotation Yrotation Xrotation
				JOINT lowerneck
				{
					OFFSET -0.013390 0.211636 -0.033468
					CHANNELS 3 Zrotation Yrotation Xrotation
					JOINT upperneck
					{
						OFFSET 0.010113 0.088937 0.050410
						CHANNELS 3 Zrotation Yrotation Xrotation
						End Site
						{
							OFFSET 0.000000 0.000000 0.000000
						}
					}
				}
				JOINT lclavicle
				{
					OFFSET 0.071702 0.114000 -0.018898
					CHANNELS 3 Zrotation Yrotation Xrotation
					JOINT lshoulder
					{
						OFFSET 0.122921 0.045205 -0.019046
						CHANNELS 3 Zrotation Yrotation Xrotation
						JOINT lelbow
						{
							OFFSET 0.255332 -0.015649 -0.022946
							CHANNELS 3 Zrotation Yrotation Xrotation
							JOINT lwrist
							{
								OFFSET 0.265709 0.012698 -0.007375
								CHANNELS 3 Zrotation Yrotation Xrotation
								End Site
								{
									OFFSET 0.000000 0.000000 0.000000
								}
							}
						}
					}
				}
				JOINT rclavicle
				{
					OFFSET -0.082954 0.112472 -0.023707
					CHANNELS 3 Zrotation Yrotation Xrotation
					JOINT rshoulder
					{
						OFFSET -0.113228 0.046853 -0.008472
						CHANNELS 3 Zrotation Yrotation Xrotation
						JOINT relbow
						{
							OFFSET -0.260127 -0.014369 -0.031269
							CHANNELS 3 Zrotation Yrotation Xrotation
							JOINT rwrist
							{
								OFFSET -0.269108 0.006794 -0.006027
								CHANNELS 3 Zrotation Yrotation Xrotation
								End Site
								{
									OFFSET 0.000000 0.000000 0.000000
								}
							}
						}
					}
				}
			}
		}
	}
}
MOTION
Frames: 8
Frame Time: 0.033333
-0.070503 0.691402 0.996896 -24.516120 -3.692517 87.044245 4.018634 5.427877 -10.873847 -5.025437 10.627713 27.101755 -1.831636 10.937085 -6.317499 0.000000 -0.000000 0.000000 -0.440921 -10.652972 -6.673964 -2.141364 -20.733173 5.383462 -0.552602 -18.198775 -10.736057 0.000000 -0.000000 0.000000 -1.966833 3.907637 20.546103 -3.918195 -1.490922 5.439291 0.045191 1.476218 5.713840 1.706356 4.520488 0.611929 8.868794 7.081931 -8.239057 -19.531453 -2.144568 2.114913 -43.754186 -2.937546 3.632159 1.523059 -41.263666 12.541192 -6.605816 -1.634306 -2.941069 14.406248 6.435323 9.074306 47.614077 -0.336203 10.271306 -1.834711 52.313962 11.064145 7.423084 4.952878 -15.494046 
-0.075322 0.680682 0.997313 -25.043586 -3.870914 86.764124 4.476419 4.606491 -11.578204 -5.475779 9.650795 30.605100 -1.931635 10.186295 -6.131385 0.000000 -0.000000 0.000000 -0.630828 -10.885130 -5.368920 -2.220255 -20.295378 4.897431 -0.727911 -18.006757 -11.090528 0.000000 -0.000000 0.000000 -1.662236 4.206429 20.107282 -3.723167 -1.284319 5.161978 0.124508 1.523284 5.825425 1.811263 3.715398 0.179551 8.676752 6.709375 -7.842079 -20.550260 -0.776612 2.140842 -45.900208 -2.233824 3.883458 1.831214 -40.024666 12.539662 -6.353384 -1.530339 -4.041834 15.098601 5.763021 9.249875 48.130207 -0.816093 10.464996 -1.120789 50.939918 11.696767 7.290131 4.749754 -15.724763 
-0.079264 0.669957 0.997337 -25.458158 -4.083320 86.244961 4.797198 3.834471 -12.030773 -6.457955 8.083380 33.567735 -1.799935 9.357228 -6.540152 0.000000 -0.000000 0.000000 -1.118708 -11.014287 -4.041193 -2.254822 -19.833815 4.922432 -0.829430 -18.021125 -11.549678 0.000000 -0.000000 0.000000 -1.383946 4.443148 19.902839 -3.567657 -1.126993 4.960222 0.123148 1.574446 5.994080 1.875304 3.010798 -0.161594 8.394739 6.272706 -7.724978 -21.477213 0.369702 2.147791 -47.235114 -1.499389 4.139954 1.660243 -39.016730 12.775272 -6.195876 -1.493278 -5.098374 15.929593 5.237920 9.303448 48.483218 -1.284518 10.645670 -0.662410 49.375033 11.801413 7.069314 4.495082 -15.688134 
-0.082197 0.659423 0.997295 -25.859700 -4.267184 85.677148 4.879282 3.139442 -12.123794 -7.512614 6.207807 35.160663 -1.537987 8.608920 -7.766254 0.000000 -0.000000 0.000000 -1.713175 -11.069434 -2.841434 -2.296686 -19.310946 5.273491 -0.700430 -18.102942 -12.061341 0.000000 -0.000000 0.000000 -1.105800 4.653017 19.703281 -3.462922 -0.958635 4.886632 0.062316 1.606972 6.244771 2.013463 2.567968 -0.443801 8.056609 5.794971 -7.746405 -22.245733 1.314477 2.036626 -47.994164 -0.933317 4.423335 1.129558 -37.990394 13.384751 -6.191536 -1.454014 -5.697864 16.743074 4.763307 9.182993 48.785779 -1.630434 10.811122 -0.359361 47.606246 11.572425 6.823251 4.221101 -15.502975 
-0.084051 0.649388 0.997231 -26.351237 -4.371972 85.265523 4.769151 2.450767 -11.948692 -8.103842 4.315892 34.913590 -1.020115 8.252981 -9.439435 0.000000 -0.000000 0.000000 -2.211380 -11.031952 -1.898892 -2.366884 -18.729134 5.634454 -0.390706 -18.228403 -12.514360 0.000000 -0.000000 0.000000 -0.905833 4.840017 19.421214 -3.372304 -0.746325 4.852317 0.036002 1.663804 6.434587 2.207754 2.426216 -0.715005 7.688112 5.384482 -7.673994 -22.761872 2.129346 1.877859 -48.590579 -0.565448 4.632978 0.636066 -36.881449 14.108625 -6.462591 -1.309577 -5.790705 17.336194 4.281865 9.045011 49.194294 -1.909064 10.954303 -0.231053 45.915179 11.198949 6.612521 3.962759 -15.301780 
-0.084912 0.639716 0.997034 -26.999625 -4.378567 85.040413 4.519929 1.789640 -11.476112 -7.986728 2.446545 32.749919 -0.291221 8.408426 -11.085860 0.000000 -0.000000 0.000000 -2.562844 -10.889403 -1.155331 -2.429035 -18.093131 5.794102 -0.024201 -18.396013 -12.774224 0.000000 -0.000000 0.000000 -0.802375 5.009918 19.004419 -3.293716 -0.491770 4.865872 0.102234 1.732972 6.517498 2.306308 2.509884 -0.942661 7.316099 5.155774 -7.521923 -22.981909 2.776629 1.786776 -49.273124 -0.391698 4.718498 0.433388 -35.626085 14.482916 -6.738700 -1.085321 -5.767681 17.637322 3.841991 9.007859 49.725617 -2.179780 11.085845 -0.242454 44.563343 10.818739 6.310076 3.750172 -15.171213 
-0.085004 0.630090 0.996537 -27.826770 -4.266149 84.924434 4.180496 1.195316 -10.586249 -7.315216 0.383897 28.973403 0.151244 8.739082 -12.311383 0.000000 -0.000000 0.000000 -2.751091 -10.672835 -0.514437 -2.523619 -17.405071 5.775863 0.337651 -18.564417 -12.849797 0.000000 -0.000000 0.000000 -0.764575 5.175952 18.451373 -3.226049 -0.218421 4.964587 0.249553 1.729645 6.565695 2.275682 2.729008 -1.067840 6.954299 5.073552 -7.441123 -23.002566 3.251185 1.739025 -49.985942 -0.380478 4.792298 0.490476 -34.207967 14.307174 -6.704807 -0.911200 -5.928876 17.796747 3.449107 8.967365 50.158897 -2.426672 11.269843 -0.265527 43.609097 10.497075 5.979544 3.637285 -15.117899 
-0.084428 0.620258 0.995514 -28.812841 -3.948410 84.821838 3.894358 0.639520 -9.254807 -6.385187 -2.072005 24.311212 -0.092144 8.788424 -12.667589 0.000000 -0.000000 0.000000 -2.733258 -10.424573 0.126488 -2.643169 -16.717357 5.656019 0.614323 -18.683460 -12.835575 0.000000 -0.000000 0.000000 -0.723724 5.191642 17.897534 -3.162862 -0.014242 5.071499 0.427574 1.728250 6.502073 2.191932 3.109934 -1.039222 6.628670 5.158756 -7.374574 -22.974612 3.652803 1.675986 -50.561929 -0.317039 4.909113 0.607168 -32.862700 13.770696 -6.237082 -0.823616 -6.228475 17.895593 3.131909 8.897849 50.378783 -2.671972 11.509053 -0.117079 43.001385 10.380043 5.642082 3.599001 -15.097229 
